<?xml version="1.0" encoding="UTF-8"?>
<svg version="1.1" fill="#1b776e" viewBox="0 0 2048 2048" width="1280" height="1280" xmlns="http://www.w3.org/2000/svg">
<path transform="translate(1881,890)" d="m0 0h20l17 2 17 4 21 8 17 9 14 10 13 11 8 8 9 11 10 15 8 16 8 21 4 13h1v56l-2 2-4 15-7 20-12 27-14 29-13 25-16 27-13 21-16 24-12 16-14 19-11 14-11 13-9 11-12 14-14 15-1 2h-2l-2 4-18 18-6 7h-2l-2 4-6 5-18 18-8 7-14 13-11 9-12 11-10 8-11 9-25 20-13 10-19 14-18 13-17 12-63 42-20 12-15 8-25 11-22 8-25 7-31 6-24 3-14 1-564 1-19 2-23 5-23 8-14 6-22 12-18 13-10 9-11 12-1 3 4 2 27 27 7 8 6 9 3 7 1 13-2 11-6 11-12 13-24 24-7 6-5 6-7 6-5 6-7 6-5 6-8 7-146 146-11 9-12 6h-22v-2l-7-2-9-7-112-112-2-1v-2h-2v-2l-4-2v-2l-4-2v-2l-4-2v-2l-4-2v-2l-4-2v-2l-4-2v-2l-4-2v-2l-4-2-306-306-8-14v-23l7-12 9-10 225-225 14-7 5-1h13l12 4 11 8 5 5v2l4 1 2-5 12-19 14-20 10-14 11-14 13-16 11-13 11-12 7-8 9-10 26-26 8-7 14-13 11-9 13-11 20-15 19-14 16-10 15-10 25-14 31-15 26-10 18-6 27-7 29-5 24-2h29l30 2 30 4 27 6 27 8 28 11 28 13 40 21 19 8 13 4 12 2 410 1 26 2 18 4 17 6 17 8 18 12 11 9 16 16 9 12 10 16v2l16-8 25-15 19-13 13-10 10-8 24-22 11-12 9-11 14-18 10-15 13-21 13-24 15-28 7-11 10-13 13-14 14-11 10-7 10-6 19-8 16-5 17-3zm6 81-15 2-14 5-12 7-13 12-7 10-15 28-12 22-8 13-10 16-13 19-13 17-9 11-11 13-8 8v2h-2l-4 5-2 1v2l-4 2-9 9-11 9-12 10-18 13-15 10-13 8-17 10-14 8-24 12-2 2-2 18-5 20-6 16-8 16-9 14-10 13-14 14-16 12-13 8-17 8-18 6-21 4-11 1h-416l-12-3-9-6-7-8-5-10-1-4v-15l3-10 7-11 10-7 10-4 8-1 411-1 15-3 14-6 12-8 6-5v-2h2l8-10 6-10 5-14 2-10v-21l-3-14-6-15-9-13-10-10-14-9-12-5-13-3-9-1-416-1-18-2-21-5-21-8-24-11-19-10-34-17-23-9-19-6-22-5-17-3-22-2-23-1h-12l-24 2-18 3-26 7-22 8-18 8-22 11-25 15-19 13-17 13-20 16-12 11-8 7-10 9-34 34-7 8-10 11-9 11-11 13-13 17-11 15-12 17-14 23-6 11 2 5h2l1 3 8 7 139 139 5 6 6 5 6 7 7 6 5 6 5 5h2l2 4h2l2 4h2l2 4h2l2 4h2l1 3 7 6 5 5 4 5 8 7 11 11 5 6 6 5 5 6 8 7 6 7h2l1 3 8 7 5 5 4-2 14-15 14-12 18-13 20-12 19-10 27-11 23-7 22-5 22-3 18-1 563-1 27-3 24-5 20-6 24-9 22-11 24-15 36-24 19-13 17-12 19-14 21-16 18-14 13-11 10-8 28-24 15-14 3-2v-2l4-2 12-12 2-1v-2h2v-2h2v-2h2v-2h2v-2h2l7-8 17-17 7-8 15-16 8-10 11-13 11-14 10-13 14-19 27-41 15-26 14-26 14-29 10-24 5-19v-18l-4-17-7-14-9-12-10-9-14-8-10-4-16-3zm-1621 419-9 8v2h-2l-6 7-6 5-6 7-4 3v2l-4 2v2l-4 2v2l-4 2v2l-4 2v2l-4 2v2l-4 2v2l-4 2v2l-4 2v2l-4 2v2l-4 2v2l-4 2v2l-4 2v2l-4 2v2l-4 2v2l-4 2v2l-4 2v2l-4 2v2l-4 2v2l-4 2v2l-4 2v2l-4 2v2l-4 2v2l-4 2v2l-4 2v2l-4 2v2l-4 2v2l-4 2v2l-4 2v2l-4 2v2l-4 2v2l-4 2v2l-4 2v2l-4 2-4 5 153 153h2l2 4h2l2 4h2l1 3 8 7 19 19 5 6 6 5 3 4h2l1 3 8 7 176 176 4-2 49-49 7-6v-2l4-2v-2l4-2v-2l4-2v-2l4-2v-2l4-2 90-90-6-7-386-386z"/>
<path transform="translate(1221)" d="m0 0h90v1l37 6 27 6 30 9 29 11 28 13 17 9 17 10 12 8 17 12 13 10 13 11 8 7 10 9 19 19 7 8 11 13 13 17 14 20 15 25 10 18 14 31 10 27 8 27 6 25 5 31 2 17 1 15v50l-2 24-4 28-6 29-9 31-9 25-11 25-8 16-12 22-14 22-13 18-13 16-11 13-5 6h-2l-2 4-18 18h-2v2l-8 7-12 10-13 10-19 14-16 10-19 11-23 12-27 12-35 12-36 9-28 5-27 3-14 1h-46l-26-2-32-5-28-6-23-7-26-9-26-11-28-14-20-12-18-12-14-10-16-13-13-11-5-4v-2l-4-2-20-20-7-8-12-14-13-17-12-17-12-19-14-25-11-23-10-25-10-30-7-28-5-27-4-36-1-17v-27l2-31 4-29 5-25 6-24 12-36 13-30 11-22 13-22 14-21 14-19 11-13 12-14 30-30 11-9 12-10 19-14 15-10 20-12 27-14 17-8 26-10 28-9 24-6 27-5zm34 80-30 2-22 3-24 5-28 8-27 10-33 16-20 12-16 11-18 14-13 11-7 7-8 7-4 4v2h-2l-7 8-12 14-13 17-12 18-12 21-8 16-7 15-9 24-8 27-5 23-3 19-2 20-1 17v20l3 35 5 30 7 27 10 29 8 18 8 17 12 21 12 18 9 12 13 16 11 12 9 10 3 3h2v2l8 7 14 12 16 12 21 14 17 10 26 13 31 12 27 8 24 5 31 4 12 1h42l30-3 27-5 27-7 31-11 30-14 21-12 18-12 14-10 11-9 10-9 8-7 18-18 7-8 10-12 14-19 12-19 10-18 12-25 9-24 8-26 5-22 4-26 2-23v-41l-2-23-5-30-8-31-10-29-11-24-13-25-14-22-13-17-11-13-12-14-14-14-8-7-13-11-16-12-18-12-26-15-21-10-23-9-24-8-31-7-28-4-33-2z"/>
<path transform="translate(1255,160)" d="m0 0h18l10 4 6 4 8 8 6 12 1 5 1 53 17 7 14 8 14 10 15 14 6 8 4 10 1 12-3 12-5 9-3 4h-2v2l-11 7-9 3h-17l-10-4-11-8-10-8-12-7-10-3-11-1-11 2-8 4-10 9-5 10-2 7v15l4 11 7 9 8 6 12 4 29 3 16 4 18 8 15 9 15 13 11 13 9 14 7 15 6 21 1 8v28l-4 20-8 20-5 9-10 14-6 7-8 7-10 8-15 9-12 5-1 2v16l-1 37-4 11-7 9-7 6-8 4-7 2h-14l-10-3-8-5-5-4-7-11-3-8-1-7v-49l-5-1-21-10-12-8-10-8-10-9-13-13-6-8-5-12-1-8 2-12 7-14 7-7 9-5 9-3h14l10 3 9 6 19 19 15 10 15 5h14l10-3 10-6 8-10 4-12v-14l-4-12-6-8-7-6-8-4-12-2-21-2-17-4-17-7-14-8-11-9-9-8-9-11-9-14-7-15-5-16-3-19v-16l3-20 6-18 8-16 9-13 11-12 11-10 18-11 11-5h3v-50l3-13 7-11 9-8 9-4z"/>
<path transform="translate(399,1660)" d="m0 0h17l11 4 9 7 23 23 5 4 6 7 6 5 6 7 14 14 6 10 2 6 1 13-3 12-5 9-2 3h-2v2l-10 7-8 3-6 1h-11l-10-3-10-6-62-62-7-12-2-8v-10l3-12 6-10 9-8 10-5z"/>
<path transform="translate(2047,1016)" d="m0 0"/>
</svg>
