<?xml version="1.0" encoding="UTF-8"?>
<svg version="1.1" fill="#1b776e" viewBox="0 0 2048 2048" width="1280" height="1280" xmlns="http://www.w3.org/2000/svg">
<path transform="translate(1008,714)" d="m0 0h32l31 2 33 4 28 5 36 9 36 12 29 12 29 14 27 15 27 18 14 10 18 14 14 12 12 11 13 12 7 7v2h2l7 8 11 12 9 11 14 18 16 23 10 16 13 22 8 16 10 21 11 27 12 36 10 40 6 36 3 29 1 18v45l-2 30-5 35-7 34-8 29-9 27-12 29-11 24-12 22-12 20-9 14 1 6 14 24 16 28 14 24 8 14 14 24 16 28 15 26 14 24 12 21 28 48 4 10 1 7-2 10-4 8-7 8-7 4-5 2h-18l-68-11-83-13-5 5-9 11-13 16-11 14-11 13-9 11-8 10-13 16-9 10-8 6-12 4-10-1-9-4-8-7-8-11-10-18-14-24-16-28-14-24-30-52-16-28-2-5-23 6-29 6-26 4-29 3-15 1h-45l-38-3-33-5-36-8-14-4-2 5-10 18-14 24-9 15-6 11-30 52-22 38-9 16-8 11-5 5-10 5-7 2-10-1-9-4-8-7-8-9-9-11-13-16-11-14-11-13-13-16-14-17-5-7-3-1-145 23-6 1h-18l-10-5-8-9-4-8-2-11 3-12 8-15 9-15 16-28 14-24 30-52 14-24 16-28 10-17 12-21 15-26 10-17-1-6-11-17-14-24-9-17-12-26-9-23-12-36-8-32-5-26-4-29-2-22-1-23v-22l2-35 4-31 5-28 9-36 8-25 9-25 12-27 14-28 13-22 7-11 8-12 10-14 10-13 14-17 10-11 1-2h2l2-4 24-24h2v-2l8-7h2v-2l11-9 15-12 18-13 18-12 18-11 18-10 17-9 30-13 24-9 25-8 27-7 29-6 39-5zm3 65-31 2-31 4-29 6-26 7-27 9-31 13-24 12-21 12-20 13-15 11-13 10-14 12-10 9-8 8-6 5-7 8-8 8-9 11-11 13-6 8-12 17-11 17-9 16-7 12-13 28-9 23-10 30-8 32-6 36-3 32v50l4 40 6 32 7 28 11 33 10 24 14 29 15 26 14 21 9 12 11 14 13 15 11 12 17 17 8 7 15 13 17 13 20 14 23 14 18 10 28 13 23 9 30 10 29 7 27 5 36 4 20 1h25l31-2 30-4 26-5 30-8 27-9 29-12 16-8 25-13 23-15 16-11 18-14 10-9 11-9 28-28 9-11 11-13 12-16 11-16 14-23 12-23 10-21 11-28 9-29 8-33 4-24 3-26 1-14v-48l-3-34-5-30-7-30-7-24-12-32-12-26-12-23-14-23-12-17-12-16-9-11-12-13-9-10-17-17-8-7-14-12-13-10-18-13-19-12-21-12-26-13-24-10-22-8-28-8-26-6-24-4-31-3-20-1zm-369 793-13 23-14 25-10 17-14 24-16 28-15 26-12 21-10 17-1 4 94-15 20-2 9 2 9 5 8 8 11 14 11 13 11 14 11 13 8 10 11 13h2l13-23 14-24 45-78 4-7v-2l-19-9-19-10-21-12-19-12-20-14-25-20-14-12-13-12-25-25zm763 0-5 4v2h-2l-7 8-17 17-2 1v2l-4 2-12 11-14 11-18 14-18 12-19 12-16 9-29 15-13 6 6 12 10 17 15 26 14 24 8 14 14 24 10 17 4-2 8-10 14-17 9-11 26-32 9-11 6-5 8-3 9-1 30 4 76 12h5l-2-5-13-24-14-24-16-28-15-26-13-23-14-24-15-27z"/>
<path transform="translate(1007,912)" d="m0 0h33l23 2 29 5 23 6 21 7 23 10 25 13 24 16 13 10 13 11 15 14 7 7 7 8 13 16 14 20 11 19 8 15 7 16 6 15 7 23 6 26 4 30 1 18v16l-1 20-4 30-7 30-8 24-9 21-8 16-11 20-7 10-10 14-9 11-9 10-7 8-9 9h-2v2l-11 9-12 10-17 12-18 11-22 12-27 11-26 8-27 6-31 4-25 1-24-1-25-3-25-5-24-7-27-10-17-8-18-10-17-11-15-11-11-9-12-11-10-9-11-12-11-13-14-19-13-21-13-25-10-25-7-22-6-26-4-28-1-13v-35l3-28 5-26 8-29 10-25 12-25 10-17 13-19 11-14 12-14 22-22 11-9 17-13 20-13 22-12 17-8 28-10 22-6 26-5 16-2zm-6 66-23 3-25 6-26 9-25 12-19 12-12 9-11 9-12 11-9 9-18 22-10 15-9 16-6 12-8 20-5 15-5 21-3 18-2 28 1 24 3 23 5 22 5 16 8 21 8 16 11 19 12 16 9 11 12 13 7 7 11 9 14 11 19 12 23 12 20 8 21 6 19 4 27 3h32l19-2 22-4 21-6 22-8 16-8 18-10 16-11 11-9 10-9 7-6v-2l3-1 7-8 8-9 8-11 10-15 9-16 8-17 8-22 7-28 3-20 1-11v-35l-3-24-4-20-8-26-9-21-11-21-12-18-11-14-14-15-10-10-11-9-13-10-16-10-10-6-17-8-24-9-22-6-22-4-10-1z"/>
<path transform="translate(1020,125)" d="m0 0h7l11 3 8 6 6 7 8 15 13 28 15 30 11 23 12 25 2 4 126 17 15 3 8 4 6 5 6 10 2 7v11l-4 11-11 12-20 20h-2v2l-8 7-13 13-8 7-17 17-8 7-10 10-5 4-1 6 14 78 9 49v18l-6 11-7 7-8 4-4 1h-14l-10-4-32-17-22-12-23-12-12-7-16-8-13-7-4 1-23 12-22 12-32 17-24 13-21 11-4 1h-14l-10-4-8-7-6-11-1-4v-11l9-50 15-83-2-5-8-7-20-20-8-7-17-17-8-7-9-9-8-7-18-18-6-7-4-9v-13l5-12 7-8 9-5 15-3 125-17 3-3 8-16 26-53 24-50 8-11 10-6zm4 108-4 6-13 28-8 17-8 16-8 15-4 5-8 5-16 4-67 9-13 2 15 15 8 7 12 12h2l2 4 8 7 19 19 5 9 1 4v13l-15 84 6-2 54-29 17-9 9-3h12l13 5 26 14 44 24 2 1-1-11-13-74v-13l5-12 4-5 2-1v-2h2v-2l4-2 17-17 8-7 17-17 8-7 3-3v-2l-26-4-56-8-12-3-8-6-6-8-8-15-11-23-19-40z"/>
<path transform="translate(1700,415)" d="m0 0 13 1 8 3 8 7 7 11 11 23 24 50 22 45 1 1 131 18 12 3 9 6 6 8 4 11v12l-4 9-7 9-12 12-8 7-18 18-8 7-16 16-8 7-17 17-8 7-1 1 1 10 13 73 9 49v18l-5 9-5 6-10 6-8 2h-9l-11-4-34-18-22-12-28-15-24-13-9-5-6 1-23 12-22 12-32 17-22 12-21 11-9 2h-8l-11-4-9-7-6-10-2-12 5-30 19-105v-5l-27-27-3-2v-2l-4-2-14-14-8-7-17-17-8-7-20-20-6-12-1-8 3-12 5-9 7-6 8-4 25-4 74-10 41-6 6-10 12-25 42-87 7-10 10-6zm4 109-8 15-11 23-17 35-6 10-8 7-13 4-57 8-23 3-4 2 20 20 8 7 21 21h2v2l8 7 7 9 4 9v16l-12 68-2 10 1 4 25-13 22-12 28-15 9-3h12l11 4 23 12 22 12 28 15h2l-1-9-13-73v-15l4-10 8-10 3-2v-2l4-2 25-25 2-1v-2l4-2 20-20-4-2-74-10-14-3-10-6-6-8-8-15-11-23-16-34-3-6z"/>
<path transform="translate(339,415)" d="m0 0 13 1 12 6 8 10 11 23 8 16 33 68 8 16 1 1 131 18 11 3 8 5 7 8 4 9 1 4v9l-4 11-9 11-10 10-8 7-13 13-8 7-13 13h-2v2h-2v2l-8 7-17 17-8 7-5 5 1 12 18 99 4 21v17l-5 10-6 7-12 6-5 1h-10l-12-5-23-12-22-12-28-15-22-12-20-11h-5l-22 12-28 15-32 17-22 12-15 8-11 3h-8l-11-4-8-6-6-9-2-6v-15l10-54 11-62 2-11v-6l-6-7-8-7-13-13-8-7-21-21-8-7-21-21-8-7-7-7-5-8-2-6v-12l4-11 5-7 9-6 9-3 49-7 82-11 6-1 2-6 8-17 8-16 19-39 12-25 9-19 6-8 7-6 7-3zm4 108-8 16-22 45-8 16-6 9-9 6-16 4-74 10-5 1 21 21 8 7 17 17 8 7 10 10 6 10 2 7v8l-13 74-2 13 5-2 23-12 18-10 30-16 9-3h12l13 5 28 15 24 13 18 10h2l-1-11-12-68-1-7v-9l3-9 6-9 21-21 2-1v-2l4-2 14-14 3-2v-2l3-1v-2l4-2 11-11-4-2-81-11-12-4-9-8-14-27-19-40-8-16z"/>
<path transform="translate(1136,1133)" d="m0 0h17l12 6 7 8 4 8 1 5v9l-3 10-4 6-9 10-171 171-10 7-10 3h-9l-10-3-8-6-8-11-28-49-30-52-5-11-1-3v-13l5-12 4-5 11-7 9-2 12 1 10 5 5 5 7 9 14 25 14 24 11 18h3l2-4 146-146z"/>
<path transform="translate(343,524)" d="m0 0"/>
</svg>
